<svg width="42" height="34" viewBox="0 0 42 34" fill="none" xmlns="http://www.w3.org/2000/svg">
<path d="M20.6935 0C32.1222 0 41.387 8.58119 41.387 19.1667C41.387 24.3178 39.1806 29.1494 35.326 32.7195C34.6232 33.3704 33.4839 33.3704 32.7812 32.7195C32.0785 32.0686 32.0785 31.0133 32.7812 30.3625C34.8499 28.4465 36.3428 26.0941 37.1357 23.5144L36.9537 23.4846L33.4472 22.7348C32.4788 22.5277 31.8751 21.6328 32.0986 20.7359C32.3062 19.9031 33.1542 19.3614 34.0496 19.4541L34.2568 19.4869L37.7498 20.2342C37.7753 19.8806 37.7881 19.5246 37.7881 19.1667C37.7881 15.7949 36.6502 12.6693 34.7107 10.1013L32.3857 11.8447C31.6134 12.4239 30.4803 12.3136 29.8549 11.5983C29.2776 10.9379 29.3347 9.9929 29.9543 9.39581L30.1209 9.25416L32.3483 7.58362C29.7071 5.30275 26.285 3.78765 22.494 3.42011L22.4929 5.83333C22.4929 6.75381 21.6873 7.5 20.6935 7.5C19.7707 7.5 19.0101 6.8566 18.9062 6.0277L18.8941 5.83333L18.8948 3.41994C15.1031 3.78717 11.6803 5.30239 9.03868 7.58362L11.2661 9.25416C12.0384 9.83342 12.1575 10.8829 11.5321 11.5983C10.9548 12.2586 9.94495 12.4034 9.18554 11.9661L9.0013 11.8447L6.67631 10.1013C4.73678 12.6693 3.59887 15.7949 3.59887 19.1667C3.59887 19.5246 3.61173 19.8806 3.63719 20.2342L7.13032 19.4869C8.09865 19.2798 9.06487 19.839 9.28842 20.7359C9.49601 21.5687 8.99025 22.3999 8.14164 22.6801L7.93989 22.7348L4.43326 23.4846L4.25129 23.5144C5.04416 26.0941 6.53714 28.4465 8.60577 30.3625C9.30849 31.0134 9.3085 32.0686 8.60578 32.7195C7.90306 33.3704 6.76372 33.3704 6.061 32.7195C2.20642 29.1494 0 24.3177 0 19.1667C0 8.58119 9.26478 0 20.6935 0ZM25.6987 13.2652C27.1352 12.7402 28.5714 14.0248 28.0551 15.3728L27.9382 15.6746L27.0385 17.9033C26.7401 18.6206 26.4367 19.3279 26.1348 20.0047C25.9194 20.4875 25.7094 20.9441 25.5059 21.3707L25.3006 21.7957C25.2333 21.9332 25.1671 22.0666 25.102 22.1959L24.7225 22.9227C24.231 23.827 23.7937 24.4739 23.3676 24.8827C21.2965 26.8691 17.879 26.9244 15.7344 25.0062C13.5896 23.0879 13.5299 19.9226 15.601 17.9361C16.2561 17.3079 17.5235 16.6316 19.4662 15.767L19.8891 15.5807L20.7831 15.1979C21.8604 14.7445 23.0106 14.2859 24.1603 13.8444L25.6987 13.2652ZM23.1929 17.85L22.2721 18.2326C22.1254 18.2943 21.9813 18.3555 21.8399 18.416L21.0249 18.7715L20.3568 19.0754L19.76 19.3595L19.2433 19.6187L18.8153 19.8475L18.4846 20.0406C18.345 20.1273 18.2451 20.1987 18.1898 20.2517C17.4995 20.9138 17.5194 21.9689 18.2343 22.6084C18.9492 23.2478 20.0883 23.2293 20.7787 22.5672C20.8493 22.4995 20.9509 22.3614 21.0766 22.163L21.2825 21.8214L21.5195 21.397L21.7824 20.8974L22.2141 20.0234C22.2778 19.8899 22.3423 19.7529 22.4076 19.6125L22.8087 18.7317L23.1929 17.85Z" fill="#116CE0"/>
</svg>
