<svg width="44" height="27" viewBox="0 0 44 27" fill="none" xmlns="http://www.w3.org/2000/svg">
<path d="M33.6597 10.507C32.5459 8.02234 29.5757 6.44116 26.7293 6.89293C24.9967 3.73057 21.5314 1.69763 17.5712 1.69763C12.0021 1.69763 7.54676 5.76351 7.423 10.8459C4.08153 11.8623 1.73013 14.6859 1.73013 17.9612C1.73013 22.027 5.31911 25.4153 9.89816 25.4153H33.2885C37.7437 25.4153 41.4565 22.027 41.4565 17.9612C41.4565 14.0082 37.9913 10.7329 33.6597 10.507Z" stroke="#116CE0" stroke-width="3" stroke-miterlimit="10"/>
<path d="M20.5136 17.2609C19.3043 17.2609 18.3542 16.3809 18.3542 15.2609C18.3542 14.1409 19.3043 13.2609 20.5136 13.2609C21.7228 13.2609 22.6729 14.1409 22.6729 15.2609C22.6729 16.3809 21.6364 17.2609 20.5136 17.2609Z" fill="#116CE0"/>
<path d="M20.5136 20.2609C26.5881 20.2609 28.961 16.107 29.0559 15.9339L29.1508 15.7609L29.0559 15.5878C28.961 15.4147 26.683 11.2609 20.5136 11.2609C14.439 11.2609 12.0661 15.4147 11.9712 15.5878L11.8763 15.7609L11.9712 15.9339C12.0661 16.107 14.3441 20.2609 20.5136 20.2609Z" stroke="#116CE0" stroke-width="3" stroke-miterlimit="10"/>
</svg>
