<svg width="34" height="38" viewBox="0 0 34 38" fill="none" xmlns="http://www.w3.org/2000/svg">
<path fill-rule="evenodd" clip-rule="evenodd" d="M10.5006 1.56007C10.8112 1.01088 11.4253 0.666748 12.0946 0.666748H28.2895C28.9784 0.666748 29.6068 1.03101 29.9079 1.60485C30.2091 2.1787 30.1301 2.86142 29.7045 3.36312L22.0949 12.3334H31.8884C32.6031 12.3334 33.2501 12.7252 33.5368 13.3316C33.8234 13.938 33.6954 14.6441 33.2106 15.1305L11.6174 36.7972C11.0569 37.3596 10.155 37.4961 9.43034 37.1283C8.70571 36.7604 8.34472 35.9827 8.55501 35.2426L12.4595 21.5001H2.19774C1.56805 21.5001 0.984173 21.1952 0.658194 20.6962C0.332215 20.1972 0.311564 19.5767 0.603744 19.0601L10.5006 1.56007ZM13.1834 4.00008L5.17165 18.1667H14.7938C15.3518 18.1667 15.8782 18.4065 16.2189 18.8159C16.5596 19.2252 16.676 19.7577 16.534 20.2576L13.8744 29.6181L27.7785 15.6667H18.3927C17.7038 15.6667 17.0754 15.3025 16.7743 14.7286C16.4731 14.1548 16.5521 13.4721 16.9777 12.9704L24.5873 4.00008H13.1834Z" fill="#116CE0"/>
</svg>
