<svg width="41" height="39" viewBox="0 0 41 39" fill="none" xmlns="http://www.w3.org/2000/svg">
<path fill-rule="evenodd" clip-rule="evenodd" d="M31.9695 1.19482C32.6799 0.523136 33.8192 0.535213 34.5141 1.22179L38.0935 4.7579C38.7854 5.44146 38.7765 6.53667 38.0736 7.20964L34.4942 10.6365C33.7882 11.3124 32.6489 11.3072 31.9495 10.6249C31.2501 9.94248 31.2555 8.84134 31.9615 8.16538L32.4281 7.71862H9.96019C8.99854 7.71862 7.54389 7.99117 6.38541 8.76832C5.32431 9.48014 4.3983 10.6785 4.3983 12.8845C4.3983 15.0932 5.32746 16.3171 6.39873 17.0497C7.56294 17.8459 9.01644 18.1304 9.96019 18.1304H31.3843C32.8887 18.1304 35.0845 18.5357 36.9566 19.8367C38.9216 21.2023 40.387 23.4639 40.387 26.8127C40.387 30.1605 38.9226 32.4274 36.9615 33.7999C35.0916 35.1085 32.8954 35.5242 31.3843 35.5242H6.98188L7.50521 36.0253C8.21125 36.7012 8.21663 37.8024 7.51724 38.4847C6.81785 39.1671 5.67852 39.1723 4.97248 38.4964L1.39314 35.0695C0.690222 34.3966 0.68133 33.3013 1.37324 32.6178L4.95258 29.0817C5.64755 28.3951 6.78682 28.383 7.49721 29.0547C8.2076 29.7264 8.22009 30.8275 7.52512 31.5141L6.98671 32.046H31.3843C32.327 32.046 33.7324 31.7653 34.8507 30.9827C35.8778 30.2639 36.7881 29.0445 36.7881 26.8127C36.7881 24.5817 35.8788 23.3718 34.8556 22.6607C33.7395 21.8851 32.3337 21.6086 31.3843 21.6086H9.96019C8.45018 21.6086 6.22301 21.1905 4.32 19.8891C2.32405 18.5241 0.799435 16.2556 0.799435 12.8845C0.799435 9.51082 2.32721 7.25668 4.33333 5.91091C6.24206 4.63047 8.46807 4.24036 9.96019 4.24036H32.535L31.9416 3.65417C31.2466 2.96759 31.2591 1.8665 31.9695 1.19482Z" fill="#116CE0"/>
</svg>
