<svg width="47" height="40" viewBox="0 0 47 40" fill="none" xmlns="http://www.w3.org/2000/svg">
<path d="M10.3677 4.90011L3.74865 15.8692C2.66327 17.6679 2.5977 19.9033 3.57577 21.7625L10.4308 34.7934C11.4681 36.7653 13.5127 38 15.7409 38H30.8362C33.0204 38 35.0321 36.813 36.0882 34.901L43.2818 21.8777C44.3413 19.9596 44.2709 17.6164 43.0981 15.7654L36.1434 4.78875C35.0432 3.05233 33.1307 2 31.0751 2H15.5048C13.4026 2 11.4538 3.10021 10.3677 4.90011Z" stroke="#116CE0" stroke-width="4"/>
<path d="M14.5 21.5L19.5589 26.5589C20.3503 27.3503 21.6373 27.3382 22.4137 26.5319L34 14.5" stroke="#116CE0" stroke-width="3" stroke-linecap="round"/>
</svg>
